<?xml version="1.0" encoding="UTF-8"?>
<!DOCTYPE svg PUBLIC "-//W3C//DTD SVG 1.1//EN" "http://www.w3.org/Graphics/SVG/1.1/DTD/svg11.dtd">
<svg xmlns="http://www.w3.org/2000/svg" version="1.1" width="1080px" height="1080px" style="shape-rendering:geometricPrecision; text-rendering:geometricPrecision; image-rendering:optimizeQuality; fill-rule:evenodd; clip-rule:evenodd" xmlns:xlink="http://www.w3.org/1999/xlink">
<g><path style="opacity:0.853" fill="#0eabcd" d="M 364.5,258.5 C 391.889,273.031 418.889,288.365 445.5,304.5C 442.314,307.521 438.98,310.354 435.5,313C 353.167,313.333 270.833,313.667 188.5,314C 180.531,322.97 172.197,331.637 163.5,340C 208.499,340.5 253.499,340.667 298.5,340.5C 298.5,342.5 298.5,344.5 298.5,346.5C 254.167,346.5 209.833,346.5 165.5,346.5C 165.5,390.167 165.5,433.833 165.5,477.5C 181.5,477.5 197.5,477.5 213.5,477.5C 213.667,446.165 213.5,414.832 213,383.5C 210.595,381.597 208.761,379.264 207.5,376.5C 230.824,375.5 254.157,375.167 277.5,375.5C 277.082,378.439 275.582,380.772 273,382.5C 272.5,414.165 272.333,445.832 272.5,477.5C 278.833,477.5 285.167,477.5 291.5,477.5C 291.5,478.833 291.5,480.167 291.5,481.5C 246.167,481.5 200.833,481.5 155.5,481.5C 155.5,480.167 155.5,478.833 155.5,477.5C 157.5,477.5 159.5,477.5 161.5,477.5C 161.5,433.833 161.5,390.167 161.5,346.5C 159.396,346.799 157.396,346.466 155.5,345.5C 156.145,344.268 156.311,342.935 156,341.5C 164.97,331.53 174.303,321.863 184,312.5C 184.483,311.552 184.649,310.552 184.5,309.5C 220.502,309.667 256.502,309.5 292.5,309C 289.293,307.865 287.959,305.865 288.5,303C 314.061,288.392 339.394,273.559 364.5,258.5 Z M 364.5,273.5 C 365.552,273.351 366.552,273.517 367.5,274C 383.237,284.064 399.237,293.731 415.5,303C 408.167,303.667 400.833,303.667 393.5,303C 384.45,280.565 369.117,274.898 347.5,286C 341.96,290.58 338.627,296.413 337.5,303.5C 329.16,303.666 320.827,303.5 312.5,303C 330.058,293.392 347.392,283.559 364.5,273.5 Z M 227.5,401.5 C 239.167,401.5 250.833,401.5 262.5,401.5C 262.5,426.5 262.5,451.5 262.5,476.5C 249.5,476.5 236.5,476.5 223.5,476.5C 223.333,452.831 223.5,429.164 224,405.5C 224.69,403.65 225.856,402.316 227.5,401.5 Z"/></g>
<g><path style="opacity:0.838" fill="#0eabcd" d="M 709.5,258.5 C 735.941,273.223 762.275,288.223 788.5,303.5C 789.521,304.002 789.688,304.668 789,305.5C 787.745,306.211 786.579,307.044 785.5,308C 822.165,308.5 858.832,308.667 895.5,308.5C 895.67,309.822 895.337,310.989 894.5,312C 904.714,321.713 914.381,331.879 923.5,342.5C 922.675,343.386 921.675,343.719 920.5,343.5C 920.5,344.5 920.5,345.5 920.5,346.5C 918.833,346.5 917.167,346.5 915.5,346.5C 915.5,390.167 915.5,433.833 915.5,477.5C 917.5,477.5 919.5,477.5 921.5,477.5C 921.5,478.833 921.5,480.167 921.5,481.5C 876.167,481.5 830.833,481.5 785.5,481.5C 785.5,480.167 785.5,478.833 785.5,477.5C 791.842,477.666 798.175,477.5 804.5,477C 803.167,446 803.167,415 804.5,384C 802.874,381.372 800.874,379.039 798.5,377C 822.174,376.167 845.84,376.334 869.5,377.5C 867.443,379.269 865.61,381.269 864,383.5C 863.5,414.832 863.333,446.165 863.5,477.5C 879.837,477.667 896.17,477.5 912.5,477C 911.167,433.667 911.167,390.333 912.5,347C 867.501,346.5 822.501,346.333 777.5,346.5C 777.5,344.833 777.5,343.167 777.5,341.5C 823.835,341.667 870.168,341.5 916.5,341C 907.469,332.304 898.803,323.304 890.5,314C 809.168,313.944 727.834,314.11 646.5,314.5C 646.5,316.167 646.5,317.833 646.5,319.5C 575.5,319.5 504.5,319.5 433.5,319.5C 433.5,317.833 433.5,316.167 433.5,314.5C 503.167,314.667 572.834,314.5 642.5,314C 639,311.167 635.5,308.333 632,305.5C 631.312,304.668 631.479,304.002 632.5,303.5C 658.394,288.726 684.06,273.726 709.5,258.5 Z M 709.5,273.5 C 727.563,283.035 745.563,292.868 763.5,303C 755.507,303.5 747.507,303.666 739.5,303.5C 733.514,284.704 720.847,277.537 701.5,282C 691.907,285.689 685.907,292.522 683.5,302.5C 676.189,303.665 668.856,303.831 661.5,303C 677.731,293.392 693.731,283.559 709.5,273.5 Z M 815.5,402.5 C 827.951,402.977 840.451,403.31 853,403.5C 853.5,427.831 853.667,452.164 853.5,476.5C 840.5,476.5 827.5,476.5 814.5,476.5C 814.177,451.759 814.51,427.092 815.5,402.5 Z"/></g>
<g><path style="opacity:0.853" fill="#0eabcd" d="M 292.5,331.5 C 340.167,331.5 387.833,331.5 435.5,331.5C 435.5,332.833 435.5,334.167 435.5,335.5C 504.166,335.907 572.833,336.24 641.5,336.5C 641.5,334.833 641.5,333.167 641.5,331.5C 689.167,331.5 736.833,331.5 784.5,331.5C 784.5,333.5 784.5,335.5 784.5,337.5C 737.165,337.333 689.832,337.5 642.5,338C 642.949,373.311 642.949,408.811 642.5,444.5C 654.186,444.168 665.852,444.501 677.5,445.5C 676.917,447.002 676.084,448.335 675,449.5C 674.5,456.826 674.334,464.159 674.5,471.5C 677.833,471.5 681.167,471.5 684.5,471.5C 684.667,440.498 684.5,409.498 684,378.5C 682.692,376.359 681.192,374.359 679.5,372.5C 702.833,371.167 726.167,371.167 749.5,372.5C 748.185,374.316 746.685,375.983 745,377.5C 744.5,408.832 744.333,440.165 744.5,471.5C 759.5,471.5 774.5,471.5 789.5,471.5C 789.5,473.167 789.5,474.833 789.5,476.5C 754.26,476.829 719.094,476.496 684,475.5C 682.056,479.11 679.723,482.443 677,485.5C 676.503,488.146 676.336,490.813 676.5,493.5C 717.839,493.167 759.172,493.5 800.5,494.5C 799.352,496.149 798.019,497.649 796.5,499C 838.171,499.167 879.837,499.667 921.5,500.5C 919.393,504.381 917.559,508.381 916,512.5C 915.5,568.499 915.333,624.499 915.5,680.5C 914.167,680.5 912.833,680.5 911.5,680.5C 911.169,625.262 911.502,570.095 912.5,515C 870.835,514.5 829.168,514.333 787.5,514.5C 787.33,513.178 787.663,512.011 788.5,511C 787.5,510.667 786.5,510.333 785.5,510C 749.168,509.5 712.835,509.333 676.5,509.5C 676.5,528.167 676.5,546.833 676.5,565.5C 679.5,565.5 682.5,565.5 685.5,565.5C 684.298,569.578 682.798,573.578 681,577.5C 680.5,606.498 680.333,635.498 680.5,664.5C 682.833,664.5 685.167,664.5 687.5,664.5C 687.5,670.167 687.5,675.833 687.5,681.5C 667.588,681.346 667.588,682.179 687.5,684C 702.228,687.696 715.228,694.529 726.5,704.5C 718.833,714.5 711.167,724.5 703.5,734.5C 681.57,715.52 660.07,715.853 639,735.5C 626.447,754.544 627.947,772.378 643.5,789C 664.651,803.859 684.651,802.359 703.5,784.5C 711.359,794.525 719.025,804.692 726.5,815C 701.206,837.152 672.539,842.819 640.5,832C 602.009,815.461 585.509,786.295 591,744.5C 601.889,705.288 627.722,684.454 668.5,682C 645.836,681.5 623.169,681.333 600.5,681.5C 600.667,642.165 600.5,602.832 600,563.5C 596.864,536.047 582.364,517.547 556.5,508C 522.211,500.563 497.044,512.396 481,543.5C 479.255,548.735 477.921,554.068 477,559.5C 476.5,600.165 476.333,640.832 476.5,681.5C 447.167,681.5 417.833,681.5 388.5,681.5C 388.5,675.833 388.5,670.167 388.5,664.5C 391.167,664.5 393.833,664.5 396.5,664.5C 396.667,635.498 396.5,606.498 396,577.5C 394.151,573.802 392.318,570.136 390.5,566.5C 393.768,565.513 397.102,565.18 400.5,565.5C 400.5,546.833 400.5,528.167 400.5,509.5C 363.136,509.185 325.803,509.519 288.5,510.5C 288.5,511.833 288.5,513.167 288.5,514.5C 247.5,514.5 206.5,514.5 165.5,514.5C 165.5,569.833 165.5,625.167 165.5,680.5C 164.167,680.5 162.833,680.5 161.5,680.5C 161.667,624.832 161.5,569.166 161,513.5C 158.58,508.67 156.746,503.67 155.5,498.5C 196.811,499.644 238.144,499.811 279.5,499C 278.624,497.414 277.624,495.914 276.5,494.5C 317.828,493.5 359.161,493.167 400.5,493.5C 400.663,491.143 400.497,488.81 400,486.5C 398.204,483.073 396.037,479.906 393.5,477C 358.168,476.5 322.835,476.333 287.5,476.5C 287.5,474.833 287.5,473.167 287.5,471.5C 302.5,471.5 317.5,471.5 332.5,471.5C 332.667,440.498 332.5,409.498 332,378.5C 330.542,376.04 328.709,373.873 326.5,372C 350.174,371.167 373.84,371.334 397.5,372.5C 396.185,374.316 394.685,375.983 393,377.5C 392.5,408.832 392.333,440.165 392.5,471.5C 395.833,471.5 399.167,471.5 402.5,471.5C 402.666,464.492 402.5,457.492 402,450.5C 401.326,448.483 400.159,446.817 398.5,445.5C 410.486,444.667 422.486,444.167 434.5,444C 433.714,408.461 433.381,372.961 433.5,337.5C 386.5,337.5 339.5,337.5 292.5,337.5C 292.5,335.5 292.5,333.5 292.5,331.5 Z M 531.5,383.5 C 549,383.834 559.834,392.5 564,409.5C 564.5,422.162 564.667,434.829 564.5,447.5C 547.167,447.5 529.833,447.5 512.5,447.5C 512.066,432.442 512.566,417.442 514,402.5C 517.607,394.062 523.44,387.729 531.5,383.5 Z M 342.5,396.5 C 355.5,396.5 368.5,396.5 381.5,396.5C 381.5,421.5 381.5,446.5 381.5,471.5C 368.5,471.5 355.5,471.5 342.5,471.5C 342.5,446.5 342.5,421.5 342.5,396.5 Z M 694.5,397.5 C 707.5,397.5 720.5,397.5 733.5,397.5C 733.5,422.167 733.5,446.833 733.5,471.5C 720.5,471.5 707.5,471.5 694.5,471.5C 694.5,446.833 694.5,422.167 694.5,397.5 Z M 231.5,534.5 C 235.747,534.382 240.081,534.882 244.5,536C 248,540.167 251.5,544.333 255,548.5C 256.457,576.458 256.957,604.458 256.5,632.5C 241.833,632.5 227.167,632.5 212.5,632.5C 212,608.499 211.833,584.499 212,560.5C 212.158,554.763 213.991,549.763 217.5,545.5C 217.291,544.914 216.957,544.414 216.5,544C 220.342,538.759 225.342,535.592 231.5,534.5 Z M 350.5,534.5 C 363.935,533.286 372.768,538.953 377,551.5C 377.5,578.831 377.667,606.165 377.5,633.5C 362.833,633.5 348.167,633.5 333.5,633.5C 333.333,606.498 333.5,579.498 334,552.5C 335.905,543.099 341.405,537.099 350.5,534.5 Z M 717.5,534.5 C 729.107,533.95 737.274,538.95 742,549.5C 742.171,577.405 742.671,605.239 743.5,633C 728.5,633.667 713.5,633.667 698.5,633C 699.329,605.572 699.829,578.072 700,550.5C 702.861,541.802 708.694,536.468 717.5,534.5 Z M 838.5,534.5 C 851.855,534.418 860.355,540.752 864,553.5C 864.5,580.165 864.667,606.831 864.5,633.5C 849.833,633.5 835.167,633.5 820.5,633.5C 820.333,606.831 820.5,580.165 821,553.5C 821.333,551.833 821.667,550.167 822,548.5C 823.011,547.663 824.178,547.33 825.5,547.5C 825.362,543.307 827.362,540.973 831.5,540.5C 831.33,539.178 831.663,538.011 832.5,537C 834.611,536.155 836.611,535.322 838.5,534.5 Z"/></g>
<g><path style="opacity:0.92" fill="#0eabcd" d="M 334.5,348.5 C 353.833,348.5 373.167,348.5 392.5,348.5C 392.5,354.5 392.5,360.5 392.5,366.5C 373.167,366.5 353.833,366.5 334.5,366.5C 334.5,360.5 334.5,354.5 334.5,348.5 Z"/></g>
<g><path style="opacity:0.922" fill="#0eabcd" d="M 684.5,348.5 C 703.833,348.5 723.167,348.5 742.5,348.5C 742.5,354.5 742.5,360.5 742.5,366.5C 723.167,366.5 703.833,366.5 684.5,366.5C 684.5,360.5 684.5,354.5 684.5,348.5 Z"/></g>
<g><path style="opacity:0.88" fill="#0eabcd" d="M 226.5,525.5 C 242.802,522.739 254.968,528.405 263,542.5C 263.667,544.5 264.333,546.5 265,548.5C 265.5,576.831 265.667,605.165 265.5,633.5C 266.833,633.5 268.167,633.5 269.5,633.5C 269.5,635.5 269.5,637.5 269.5,639.5C 268.167,639.5 266.833,639.5 265.5,639.5C 265.5,646.5 265.5,653.5 265.5,660.5C 244.833,660.5 224.167,660.5 203.5,660.5C 203.5,653.5 203.5,646.5 203.5,639.5C 201.5,639.5 199.5,639.5 197.5,639.5C 197.5,637.5 197.5,635.5 197.5,633.5C 199.5,633.5 201.5,633.5 203.5,633.5C 203.008,603.956 203.508,574.289 205,544.5C 209.686,535.258 216.852,528.925 226.5,525.5 Z M 231.5,534.5 C 225.342,535.592 220.342,538.759 216.5,544C 216.957,544.414 217.291,544.914 217.5,545.5C 213.991,549.763 212.158,554.763 212,560.5C 211.833,584.499 212,608.499 212.5,632.5C 227.167,632.5 241.833,632.5 256.5,632.5C 256.957,604.458 256.457,576.458 255,548.5C 251.5,544.333 248,540.167 244.5,536C 240.081,534.882 235.747,534.382 231.5,534.5 Z"/></g>
<g><path style="opacity:0.891" fill="#0eabcd" d="M 349.5,525.5 C 369.59,524.116 382.09,533.116 387,552.5C 387.828,579.072 387.661,605.572 386.5,632C 387.793,632.49 389.127,632.657 390.5,632.5C 390.5,634.833 390.5,637.167 390.5,639.5C 389.127,639.343 387.793,639.51 386.5,640C 387.479,646.744 387.812,653.578 387.5,660.5C 366.5,660.5 345.5,660.5 324.5,660.5C 324.5,653.5 324.5,646.5 324.5,639.5C 322.833,639.5 321.167,639.5 319.5,639.5C 319.5,637.167 319.5,634.833 319.5,632.5C 321.167,632.5 322.833,632.5 324.5,632.5C 324.333,605.498 324.5,578.498 325,551.5C 328.25,538.086 336.417,529.419 349.5,525.5 Z M 350.5,534.5 C 341.405,537.099 335.905,543.099 334,552.5C 333.5,579.498 333.333,606.498 333.5,633.5C 348.167,633.5 362.833,633.5 377.5,633.5C 377.667,606.165 377.5,578.831 377,551.5C 372.768,538.953 363.935,533.286 350.5,534.5 Z"/></g>
<g><path style="opacity:0.864" fill="#0eabcd" d="M 715.5,525.5 C 735.992,524.816 748.159,534.483 752,554.5C 752.828,580.739 752.661,606.906 751.5,633C 753.473,633.495 755.473,633.662 757.5,633.5C 757.5,635.833 757.5,638.167 757.5,640.5C 755.473,640.338 753.473,640.505 751.5,641C 752.479,647.744 752.812,654.578 752.5,661.5C 731.5,661.5 710.5,661.5 689.5,661.5C 689.5,654.5 689.5,647.5 689.5,640.5C 688.5,640.5 687.5,640.5 686.5,640.5C 686.5,638.167 686.5,635.833 686.5,633.5C 687.5,633.5 688.5,633.5 689.5,633.5C 689.333,605.831 689.5,578.165 690,550.5C 693.781,537.218 702.281,528.885 715.5,525.5 Z M 717.5,534.5 C 708.694,536.468 702.861,541.802 700,550.5C 699.829,578.072 699.329,605.572 698.5,633C 713.5,633.667 728.5,633.667 743.5,633C 742.671,605.239 742.171,577.405 742,549.5C 737.274,538.95 729.107,533.95 717.5,534.5 Z"/></g>
<g><path style="opacity:0.877" fill="#0eabcd" d="M 835.5,525.5 C 854.88,523.759 867.38,532.092 873,550.5C 873.5,578.165 873.667,605.831 873.5,633.5C 875.167,633.5 876.833,633.5 878.5,633.5C 878.5,635.833 878.5,638.167 878.5,640.5C 876.833,640.5 875.167,640.5 873.5,640.5C 873.812,647.422 873.479,654.256 872.5,661C 851.836,661.5 831.169,661.667 810.5,661.5C 810.5,654.5 810.5,647.5 810.5,640.5C 809.5,640.5 808.5,640.5 807.5,640.5C 807.5,638.167 807.5,635.833 807.5,633.5C 808.833,633.5 810.167,633.5 811.5,633.5C 811.333,604.831 811.5,576.165 812,547.5C 815.598,535.481 823.432,528.147 835.5,525.5 Z M 838.5,534.5 C 836.611,535.322 834.611,536.155 832.5,537C 831.663,538.011 831.33,539.178 831.5,540.5C 827.362,540.973 825.362,543.307 825.5,547.5C 824.178,547.33 823.011,547.663 822,548.5C 821.667,550.167 821.333,551.833 821,553.5C 820.5,580.165 820.333,606.831 820.5,633.5C 835.167,633.5 849.833,633.5 864.5,633.5C 864.667,606.831 864.5,580.165 864,553.5C 860.355,540.752 851.855,534.418 838.5,534.5 Z"/></g>
<g><path style="opacity:0.98" fill="#0eabcd" d="M 162.5,685.5 C 175.833,685.5 189.167,685.5 202.5,685.5C 202.333,717.168 202.5,748.835 203,780.5C 204.926,792.426 211.926,798.759 224,799.5C 234.739,799.097 241.739,793.763 245,783.5C 245.5,750.835 245.667,718.168 245.5,685.5C 258.833,685.5 272.167,685.5 285.5,685.5C 285.667,720.835 285.5,756.168 285,791.5C 276.219,821.655 256.053,836.989 224.5,837.5C 199.201,837.994 180.367,827.327 168,805.5C 165.558,800.067 163.892,794.4 163,788.5C 162.5,754.168 162.333,719.835 162.5,685.5 Z"/></g>
<g><path style="opacity:0.971" fill="#0eabcd" d="M 370.5,685.5 C 385.079,685.176 399.579,685.51 414,686.5C 425,712.5 436,738.5 447,764.5C 458,738.5 469,712.5 480,686.5C 494.77,685.177 509.603,685.177 524.5,686.5C 501.926,736.059 479.26,785.559 456.5,835C 450.141,835.831 443.807,835.664 437.5,834.5C 414.326,785.156 391.993,735.49 370.5,685.5 Z"/></g>
<g><path style="opacity:0.976" fill="#0eabcd" d="M 812.5,685.5 C 844.833,685.5 877.167,685.5 909.5,685.5C 909.5,697.833 909.5,710.167 909.5,722.5C 890.5,722.5 871.5,722.5 852.5,722.5C 852.5,729.167 852.5,735.833 852.5,742.5C 868.167,742.5 883.833,742.5 899.5,742.5C 899.5,753.833 899.5,765.167 899.5,776.5C 883.833,776.5 868.167,776.5 852.5,776.5C 852.5,783.167 852.5,789.833 852.5,796.5C 871.5,796.5 890.5,796.5 909.5,796.5C 909.5,808.833 909.5,821.167 909.5,833.5C 877.167,833.5 844.833,833.5 812.5,833.5C 812.5,784.167 812.5,734.833 812.5,685.5 Z"/></g>
</svg>
